<svg width="40" height="40" viewBox="0 0 40 40" fill="none" xmlns="http://www.w3.org/2000/svg">
<path d="M37.9006 28.6521L26.1176 36.8653C25.4042 37.2876 24.5704 37.4555 23.7517 37.3435L13.013 35.8681C12.3246 35.7732 11.6245 35.8936 11.0046 36.2124L5.83161 38.8749C5.2702 39.1632 4.58514 38.936 4.3011 38.3662L0.123924 30.0089C-0.161794 29.439 0.063773 28.7437 0.623514 28.4554L12.2394 22.3028L12.2427 22.3062C12.9645 21.928 13.8618 21.9025 14.6204 22.2739L21.2938 25.5402C21.7115 25.7454 22.1877 25.8353 22.6606 25.798L27.4393 25.4249C27.7033 25.4045 27.9606 25.4232 28.2045 25.4741C28.2062 25.4741 28.2079 25.4741 28.2096 25.4741C28.8896 25.6894 29.4142 26.2864 29.5112 27.0495C29.578 27.5804 29.4226 28.0942 29.1118 28.486C28.8645 28.8014 28.5153 29.0388 28.1043 29.1423L27.7534 29.2321L24.7626 29.9902L21.9304 30.7093C21.7349 30.7601 21.5328 30.7771 21.3306 30.7601L14.0439 30.192C13.7248 30.1666 13.4458 30.4057 13.4174 30.7296C13.4157 30.733 13.4157 30.7347 13.4157 30.7381C13.3906 31.0654 13.6312 31.3503 13.9537 31.3757L21.242 31.9439C21.3189 31.9506 21.3974 31.954 21.476 31.954C21.7249 31.954 21.9722 31.9235 22.2145 31.8608L28.3883 30.2955C29.6498 29.9732 30.5438 28.8896 30.6774 27.6278L35.9975 24.7109C36.3818 24.5091 37.2907 24.2106 37.67 24.175C38.1997 24.1241 39.1437 24.0851 39.7235 25.1112C40.5924 26.6476 39.2557 27.6601 37.9006 28.6505V28.6521Z" fill="#1C1B1F"/>
<path fill-rule="evenodd" clip-rule="evenodd" d="M8.1288 3.70992C8.1288 2.21327 9.34207 1 10.8387 1C12.3354 1 13.5486 2.21327 13.5486 3.70992V6.21832L17.6606 2.03981C18.9724 0.706794 21.1007 0.706138 22.4133 2.03835L22.7497 2.37971C21.3575 2.44354 20.2481 3.60935 20.2481 5.03814V5.52026H20.0105C18.5624 5.52026 17.3886 6.71172 17.3886 8.18145V10.3348L7.92723 19.9373C6.83868 21.042 5.07386 21.042 3.98535 19.9372C2.89727 18.8328 2.89675 17.0425 3.98418 15.9375L8.1288 11.7258V3.70992ZM30.5086 18.2555L32.1673 19.9391C33.2555 21.0436 35.0198 21.0436 36.108 19.9391C37.1962 18.8346 37.1962 17.0439 36.108 15.9394L33.0257 12.8109V15.5964C33.0257 17.0305 31.908 18.1997 30.5086 18.2555Z" fill="#0085FF"/>
<path fill-rule="evenodd" clip-rule="evenodd" d="M21.5957 5.03497C21.5957 4.32476 22.1629 3.74902 22.8627 3.74902H30.3964C31.0961 3.74902 31.6634 4.32476 31.6634 5.03497V15.5933C31.6634 16.3035 31.0961 16.8792 30.3964 16.8792H22.8627C22.1629 16.8792 21.5957 16.3035 21.5957 15.5933V5.03497ZM23.7556 5.77637C23.3814 5.77637 23.0781 6.08423 23.0781 6.46399C23.0781 6.84375 23.3814 7.15161 23.7556 7.15161H29.4948C29.869 7.15161 30.1723 6.84375 30.1723 6.46399C30.1723 6.08423 29.869 5.77637 29.4948 5.77637H23.7556ZM23.7556 7.9668C23.3814 7.9668 23.0781 8.27466 23.0781 8.65442C23.0781 9.03418 23.3814 9.34204 23.7556 9.34204H29.4948C29.869 9.34204 30.1723 9.03418 30.1723 8.65442C30.1723 8.27466 29.869 7.9668 29.4948 7.9668H23.7556ZM23.0781 10.8473C23.0781 10.4675 23.3814 10.1597 23.7556 10.1597H29.4948C29.869 10.1597 30.1723 10.4675 30.1723 10.8473C30.1723 11.2271 29.869 11.5349 29.4948 11.5349H23.7556C23.3814 11.5349 23.0781 11.2271 23.0781 10.8473Z" fill="#1C1B1F"/>
<path fill-rule="evenodd" clip-rule="evenodd" d="M20.2461 6.89282H20.0092C19.3094 6.89282 18.7422 7.46856 18.7422 8.17877V18.7371C18.7422 19.4473 19.3094 20.023 20.0092 20.023H27.5429C28.2426 20.023 28.8099 19.4473 28.8099 18.7371V18.2532H22.868C21.4199 18.2532 20.2461 17.0618 20.2461 15.592V6.89282Z" fill="#1C1B1F"/>
</svg>
