<svg width="145" height="96" viewBox="0 0 145 96" fill="none" xmlns="http://www.w3.org/2000/svg">
<path d="M102.984 48.7664L82.8926 62.5642C81.6761 63.2736 80.2545 63.5556 78.8585 63.3676L60.5479 60.8889C59.3741 60.7294 58.1804 60.9317 57.1234 61.4673L48.3029 65.9402C47.3456 66.4246 46.1775 66.0428 45.6932 65.0855L38.5707 51.0456C38.0835 50.0884 38.4681 48.9203 39.4225 48.4359L59.2288 38.0998L59.2345 38.1055C60.4653 37.4701 61.9952 37.4274 63.2886 38.0513L74.6676 43.5385C75.3798 43.8832 76.1918 44.0342 76.9981 43.9716L85.1462 43.3448C85.5963 43.3106 86.0351 43.3419 86.451 43.4274C86.4539 43.4274 86.4567 43.4274 86.4596 43.4274C87.6191 43.7892 88.5137 44.7921 88.679 46.0741C88.7929 46.9659 88.528 47.8291 87.9981 48.4872C87.5764 49.0171 86.981 49.416 86.2801 49.5898L85.6818 49.7408L80.5821 51.0143L75.753 52.2223C75.4197 52.3077 75.075 52.3362 74.7302 52.3077L62.3057 51.3533C61.7616 51.3106 61.2858 51.7123 61.2374 52.2565C61.2345 52.2622 61.2345 52.265 61.2345 52.2707C61.1918 52.8206 61.602 53.2992 62.1519 53.3419L74.5792 54.2963C74.7103 54.3077 74.8442 54.3134 74.9781 54.3134C75.4026 54.3134 75.8243 54.2622 76.2374 54.1567L86.7644 51.5271C88.9154 50.9858 90.4397 49.1653 90.6676 47.0456L99.7388 42.1453C100.394 41.8063 101.944 41.3049 102.591 41.2451C103.494 41.1596 105.103 41.0941 106.092 42.8177C107.574 45.3989 105.294 47.0998 102.984 48.7636V48.7664Z" fill="#1C1B1F"/>
<path fill-rule="evenodd" clip-rule="evenodd" d="M52.2216 6.93319C52.2216 4.38125 54.2904 2.3125 56.8423 2.3125C59.3942 2.3125 61.463 4.38125 61.463 6.93319V11.0763L68.3964 4.13469C70.6747 1.85374 74.371 1.85262 76.6506 4.13219L76.9906 4.4722L76.9907 4.47208L77.1482 4.62958C74.774 4.73635 72.8818 6.69506 72.8818 9.09568V9.90625H72.4785C70.0094 9.90625 68.0078 11.9079 68.0078 14.3769V17.9945L51.8751 34.1264C50.019 35.9824 47.0098 35.9823 45.1538 34.1263C43.2985 32.271 43.2976 29.2633 45.1518 27.4069L52.2216 20.3287V6.93319ZM90.3802 31.3002L93.2094 34.1294C95.0649 35.9849 98.0732 35.9849 99.9287 34.1294C101.784 32.2739 101.784 29.2655 99.9287 27.4101L94.669 22.1503V26.8331C94.669 29.2413 92.7649 31.2047 90.3802 31.3002Z" fill="#0085FF"/>
<path fill-rule="evenodd" clip-rule="evenodd" d="M75.1924 9.09002C75.1924 7.8969 76.1596 6.92969 77.3527 6.92969H90.1985C91.3916 6.92969 92.3588 7.8969 92.3588 9.09002V26.8275C92.3588 28.0206 91.3916 28.9878 90.1985 28.9878H77.3527C76.1596 28.9878 75.1924 28.0206 75.1924 26.8275V9.09002ZM78.8808 10.3359C78.2428 10.3359 77.7256 10.8531 77.7256 11.4911C77.7256 12.1291 78.2428 12.6463 78.8808 12.6463H88.6667C89.3047 12.6463 89.8219 12.1291 89.8219 11.4911C89.8219 10.8531 89.3047 10.3359 88.6667 10.3359H78.8808ZM78.8808 14.0156C78.2428 14.0156 77.7256 14.5328 77.7256 15.1708C77.7256 15.8088 78.2428 16.326 78.8808 16.326H88.6667C89.3047 16.326 89.8219 15.8088 89.8219 15.1708C89.8219 14.5328 89.3047 14.0156 88.6667 14.0156H78.8808ZM77.7256 18.8544C77.7256 18.2164 78.2428 17.6992 78.8808 17.6992H88.6667C89.3047 17.6992 89.8219 18.2164 89.8219 18.8544C89.8219 19.4924 89.3047 20.0096 88.6667 20.0096H78.8808C78.2428 20.0096 77.7256 19.4924 77.7256 18.8544Z" fill="#1C1B1F"/>
<path fill-rule="evenodd" clip-rule="evenodd" d="M72.8818 12.2109H72.4787C71.2856 12.2109 70.3184 13.1782 70.3184 14.3713V32.1087C70.3184 33.3019 71.2856 34.2691 72.4787 34.2691H85.3245C86.5176 34.2691 87.4848 33.3019 87.4848 32.1087V31.296H77.3525C74.8834 31.296 72.8818 29.2944 72.8818 26.8253V12.2109Z" fill="#1C1B1F"/>
<path d="M21.97 77.24C21.97 77.6467 21.8767 78.02 21.69 78.36C21.5033 78.6933 21.2167 78.9633 20.83 79.17C20.4433 79.3767 19.9633 79.48 19.39 79.48H18.33V82H16.62V74.98H19.39C19.95 74.98 20.4233 75.0767 20.81 75.27C21.1967 75.4633 21.4867 75.73 21.68 76.07C21.8733 76.41 21.97 76.8 21.97 77.24ZM19.26 78.12C19.5867 78.12 19.83 78.0433 19.99 77.89C20.15 77.7367 20.23 77.52 20.23 77.24C20.23 76.96 20.15 76.7433 19.99 76.59C19.83 76.4367 19.5867 76.36 19.26 76.36H18.33V78.12H19.26ZM24.5702 77.35C24.7702 77.0433 25.0202 76.8033 25.3202 76.63C25.6202 76.45 25.9536 76.36 26.3202 76.36V78.17H25.8502C25.4236 78.17 25.1036 78.2633 24.8902 78.45C24.6769 78.63 24.5702 78.95 24.5702 79.41V82H22.8602V76.42H24.5702V77.35ZM29.6776 82.08C29.1309 82.08 28.6376 81.9633 28.1976 81.73C27.7642 81.4967 27.4209 81.1633 27.1676 80.73C26.9209 80.2967 26.7976 79.79 26.7976 79.21C26.7976 78.6367 26.9242 78.1333 27.1776 77.7C27.4309 77.26 27.7776 76.9233 28.2176 76.69C28.6576 76.4567 29.1509 76.34 29.6976 76.34C30.2442 76.34 30.7376 76.4567 31.1776 76.69C31.6176 76.9233 31.9642 77.26 32.2176 77.7C32.4709 78.1333 32.5976 78.6367 32.5976 79.21C32.5976 79.7833 32.4676 80.29 32.2076 80.73C31.9542 81.1633 31.6042 81.4967 31.1576 81.73C30.7176 81.9633 30.2242 82.08 29.6776 82.08ZM29.6776 80.6C30.0042 80.6 30.2809 80.48 30.5076 80.24C30.7409 80 30.8576 79.6567 30.8576 79.21C30.8576 78.7633 30.7442 78.42 30.5176 78.18C30.2976 77.94 30.0242 77.82 29.6976 77.82C29.3642 77.82 29.0876 77.94 28.8676 78.18C28.6476 78.4133 28.5376 78.7567 28.5376 79.21C28.5376 79.6567 28.6442 80 28.8576 80.24C29.0776 80.48 29.3509 80.6 29.6776 80.6ZM35.2148 77.21C35.3814 76.95 35.6114 76.74 35.9048 76.58C36.1981 76.42 36.5414 76.34 36.9348 76.34C37.3948 76.34 37.8114 76.4567 38.1848 76.69C38.5581 76.9233 38.8514 77.2567 39.0648 77.69C39.2848 78.1233 39.3948 78.6267 39.3948 79.2C39.3948 79.7733 39.2848 80.28 39.0648 80.72C38.8514 81.1533 38.5581 81.49 38.1848 81.73C37.8114 81.9633 37.3948 82.08 36.9348 82.08C36.5481 82.08 36.2048 82 35.9048 81.84C35.6114 81.68 35.3814 81.4733 35.2148 81.22V84.66H33.5048V76.42H35.2148V77.21ZM37.6548 79.2C37.6548 78.7733 37.5348 78.44 37.2948 78.2C37.0614 77.9533 36.7714 77.83 36.4248 77.83C36.0848 77.83 35.7948 77.9533 35.5548 78.2C35.3214 78.4467 35.2048 78.7833 35.2048 79.21C35.2048 79.6367 35.3214 79.9733 35.5548 80.22C35.7948 80.4667 36.0848 80.59 36.4248 80.59C36.7648 80.59 37.0548 80.4667 37.2948 80.22C37.5348 79.9667 37.6548 79.6267 37.6548 79.2ZM45.5519 79.12C45.5519 79.28 45.5419 79.4467 45.5219 79.62H41.6519C41.6785 79.9667 41.7885 80.2333 41.9819 80.42C42.1819 80.6 42.4252 80.69 42.7119 80.69C43.1385 80.69 43.4352 80.51 43.6019 80.15H45.4219C45.3285 80.5167 45.1585 80.8467 44.9119 81.14C44.6719 81.4333 44.3685 81.6633 44.0019 81.83C43.6352 81.9967 43.2252 82.08 42.7719 82.08C42.2252 82.08 41.7385 81.9633 41.3119 81.73C40.8852 81.4967 40.5519 81.1633 40.3119 80.73C40.0719 80.2967 39.9519 79.79 39.9519 79.21C39.9519 78.63 40.0685 78.1233 40.3019 77.69C40.5419 77.2567 40.8752 76.9233 41.3019 76.69C41.7285 76.4567 42.2185 76.34 42.7719 76.34C43.3119 76.34 43.7919 76.4533 44.2119 76.68C44.6319 76.9067 44.9585 77.23 45.1919 77.65C45.4319 78.07 45.5519 78.56 45.5519 79.12ZM43.8019 78.67C43.8019 78.3767 43.7019 78.1433 43.5019 77.97C43.3019 77.7967 43.0519 77.71 42.7519 77.71C42.4652 77.71 42.2219 77.7933 42.0219 77.96C41.8285 78.1267 41.7085 78.3633 41.6619 78.67H43.8019ZM48.164 77.35C48.364 77.0433 48.614 76.8033 48.914 76.63C49.214 76.45 49.5473 76.36 49.914 76.36V78.17H49.444C49.0173 78.17 48.6973 78.2633 48.484 78.45C48.2707 78.63 48.164 78.95 48.164 79.41V82H46.454V76.42H48.164V77.35ZM54.4413 80.55V82H53.5713C52.9513 82 52.468 81.85 52.1213 81.55C51.7747 81.2433 51.6013 80.7467 51.6013 80.06V77.84H50.9213V76.42H51.6013V75.06H53.3113V76.42H54.4313V77.84H53.3113V80.08C53.3113 80.2467 53.3513 80.3667 53.4313 80.44C53.5113 80.5133 53.6447 80.55 53.8313 80.55H54.4413ZM61.6938 76.42L58.1938 84.65H56.3538L57.6338 81.81L55.3638 76.42H57.2738L58.5638 79.91L59.8438 76.42H61.6938ZM64.7413 78.48C64.7413 77.7867 64.8913 77.17 65.1913 76.63C65.4913 76.0833 65.908 75.66 66.4413 75.36C66.9813 75.0533 67.5913 74.9 68.2713 74.9C69.1047 74.9 69.818 75.12 70.4113 75.56C71.0047 76 71.4013 76.6 71.6013 77.36H69.7213C69.5813 77.0667 69.3813 76.8433 69.1213 76.69C68.868 76.5367 68.578 76.46 68.2513 76.46C67.7247 76.46 67.298 76.6433 66.9713 77.01C66.6447 77.3767 66.4813 77.8667 66.4813 78.48C66.4813 79.0933 66.6447 79.5833 66.9713 79.95C67.298 80.3167 67.7247 80.5 68.2513 80.5C68.578 80.5 68.868 80.4233 69.1213 80.27C69.3813 80.1167 69.5813 79.8933 69.7213 79.6H71.6013C71.4013 80.36 71.0047 80.96 70.4113 81.4C69.818 81.8333 69.1047 82.05 68.2713 82.05C67.5913 82.05 66.9813 81.9 66.4413 81.6C65.908 81.2933 65.4913 80.87 65.1913 80.33C64.8913 79.79 64.7413 79.1733 64.7413 78.48ZM75.1885 82.08C74.6418 82.08 74.1485 81.9633 73.7085 81.73C73.2752 81.4967 72.9318 81.1633 72.6785 80.73C72.4318 80.2967 72.3085 79.79 72.3085 79.21C72.3085 78.6367 72.4352 78.1333 72.6885 77.7C72.9418 77.26 73.2885 76.9233 73.7285 76.69C74.1685 76.4567 74.6618 76.34 75.2085 76.34C75.7552 76.34 76.2485 76.4567 76.6885 76.69C77.1285 76.9233 77.4752 77.26 77.7285 77.7C77.9818 78.1333 78.1085 78.6367 78.1085 79.21C78.1085 79.7833 77.9785 80.29 77.7185 80.73C77.4652 81.1633 77.1152 81.4967 76.6685 81.73C76.2285 81.9633 75.7352 82.08 75.1885 82.08ZM75.1885 80.6C75.5152 80.6 75.7918 80.48 76.0185 80.24C76.2518 80 76.3685 79.6567 76.3685 79.21C76.3685 78.7633 76.2552 78.42 76.0285 78.18C75.8085 77.94 75.5352 77.82 75.2085 77.82C74.8752 77.82 74.5985 77.94 74.3785 78.18C74.1585 78.4133 74.0485 78.7567 74.0485 79.21C74.0485 79.6567 74.1552 80 74.3685 80.24C74.5885 80.48 74.8618 80.6 75.1885 80.6ZM82.4157 76.36C83.069 76.36 83.589 76.5733 83.9757 77C84.369 77.42 84.5657 78 84.5657 78.74V82H82.8657V78.97C82.8657 78.5967 82.769 78.3067 82.5757 78.1C82.3824 77.8933 82.1224 77.79 81.7957 77.79C81.469 77.79 81.209 77.8933 81.0157 78.1C80.8224 78.3067 80.7257 78.5967 80.7257 78.97V82H79.0157V76.42H80.7257V77.16C80.899 76.9133 81.1324 76.72 81.4257 76.58C81.719 76.4333 82.049 76.36 82.4157 76.36ZM88.864 80.55V82H87.994C87.374 82 86.8907 81.85 86.544 81.55C86.1973 81.2433 86.024 80.7467 86.024 80.06V77.84H85.344V76.42H86.024V75.06H87.734V76.42H88.854V77.84H87.734V80.08C87.734 80.2467 87.774 80.3667 87.854 80.44C87.934 80.5133 88.0673 80.55 88.254 80.55H88.864ZM91.5265 77.35C91.7265 77.0433 91.9765 76.8033 92.2765 76.63C92.5765 76.45 92.9098 76.36 93.2765 76.36V78.17H92.8065C92.3798 78.17 92.0598 78.2633 91.8465 78.45C91.6332 78.63 91.5265 78.95 91.5265 79.41V82H89.8165V76.42H91.5265V77.35ZM96.6338 82.08C96.0872 82.08 95.5938 81.9633 95.1538 81.73C94.7205 81.4967 94.3772 81.1633 94.1238 80.73C93.8772 80.2967 93.7538 79.79 93.7538 79.21C93.7538 78.6367 93.8805 78.1333 94.1338 77.7C94.3872 77.26 94.7338 76.9233 95.1738 76.69C95.6138 76.4567 96.1072 76.34 96.6538 76.34C97.2005 76.34 97.6938 76.4567 98.1338 76.69C98.5738 76.9233 98.9205 77.26 99.1738 77.7C99.4272 78.1333 99.5538 78.6367 99.5538 79.21C99.5538 79.7833 99.4238 80.29 99.1638 80.73C98.9105 81.1633 98.5605 81.4967 98.1138 81.73C97.6738 81.9633 97.1805 82.08 96.6338 82.08ZM96.6338 80.6C96.9605 80.6 97.2372 80.48 97.4638 80.24C97.6972 80 97.8138 79.6567 97.8138 79.21C97.8138 78.7633 97.7005 78.42 97.4738 78.18C97.2538 77.94 96.9805 77.82 96.6538 77.82C96.3205 77.82 96.0438 77.94 95.8238 78.18C95.6038 78.4133 95.4938 78.7567 95.4938 79.21C95.4938 79.6567 95.6005 80 95.8138 80.24C96.0338 80.48 96.3072 80.6 96.6338 80.6ZM102.171 74.6V82H100.461V74.6H102.171ZM105.419 76.76C105.446 76.0467 105.679 75.4967 106.119 75.11C106.559 74.7233 107.156 74.53 107.909 74.53C108.409 74.53 108.836 74.6167 109.189 74.79C109.549 74.9633 109.819 75.2 109.999 75.5C110.186 75.8 110.279 76.1367 110.279 76.51C110.279 76.95 110.169 77.31 109.949 77.59C109.729 77.8633 109.473 78.05 109.179 78.15V78.19C109.559 78.3167 109.859 78.5267 110.079 78.82C110.299 79.1133 110.409 79.49 110.409 79.95C110.409 80.3633 110.313 80.73 110.119 81.05C109.933 81.3633 109.656 81.61 109.289 81.79C108.929 81.97 108.499 82.06 107.999 82.06C107.199 82.06 106.559 81.8633 106.079 81.47C105.606 81.0767 105.356 80.4833 105.329 79.69H106.989C106.996 79.9833 107.079 80.2167 107.239 80.39C107.399 80.5567 107.633 80.64 107.939 80.64C108.199 80.64 108.399 80.5667 108.539 80.42C108.686 80.2667 108.759 80.0667 108.759 79.82C108.759 79.5 108.656 79.27 108.449 79.13C108.249 78.9833 107.926 78.91 107.479 78.91H107.159V77.52H107.479C107.819 77.52 108.093 77.4633 108.299 77.35C108.513 77.23 108.619 77.02 108.619 76.72C108.619 76.48 108.553 76.2933 108.419 76.16C108.286 76.0267 108.103 75.96 107.869 75.96C107.616 75.96 107.426 76.0367 107.299 76.19C107.179 76.3433 107.109 76.5333 107.089 76.76H105.419ZM115.024 76.67C114.971 76.4233 114.877 76.24 114.744 76.12C114.611 75.9933 114.421 75.93 114.174 75.93C113.794 75.93 113.521 76.0967 113.354 76.43C113.187 76.7567 113.101 77.2767 113.094 77.99C113.241 77.7567 113.451 77.5733 113.724 77.44C114.004 77.3067 114.311 77.24 114.644 77.24C115.297 77.24 115.821 77.4467 116.214 77.86C116.614 78.2733 116.814 78.85 116.814 79.59C116.814 80.0767 116.714 80.5033 116.514 80.87C116.321 81.2367 116.034 81.5233 115.654 81.73C115.281 81.9367 114.837 82.04 114.324 82.04C113.297 82.04 112.584 81.72 112.184 81.08C111.784 80.4333 111.584 79.5067 111.584 78.3C111.584 77.0333 111.794 76.0933 112.214 75.48C112.641 74.86 113.321 74.55 114.254 74.55C114.754 74.55 115.174 74.65 115.514 74.85C115.861 75.0433 116.121 75.3 116.294 75.62C116.474 75.94 116.581 76.29 116.614 76.67H115.024ZM114.234 78.59C113.947 78.59 113.707 78.6767 113.514 78.85C113.327 79.0167 113.234 79.2567 113.234 79.57C113.234 79.89 113.321 80.14 113.494 80.32C113.674 80.5 113.927 80.59 114.254 80.59C114.547 80.59 114.777 80.5033 114.944 80.33C115.117 80.15 115.204 79.9067 115.204 79.6C115.204 79.2867 115.121 79.04 114.954 78.86C114.787 78.68 114.547 78.59 114.234 78.59ZM117.781 78.25C117.781 77.1033 118.001 76.2 118.441 75.54C118.888 74.88 119.605 74.55 120.591 74.55C121.578 74.55 122.291 74.88 122.731 75.54C123.178 76.2 123.401 77.1033 123.401 78.25C123.401 79.41 123.178 80.32 122.731 80.98C122.291 81.64 121.578 81.97 120.591 81.97C119.605 81.97 118.888 81.64 118.441 80.98C118.001 80.32 117.781 79.41 117.781 78.25ZM121.721 78.25C121.721 77.5767 121.648 77.06 121.501 76.7C121.355 76.3333 121.051 76.15 120.591 76.15C120.131 76.15 119.828 76.3333 119.681 76.7C119.535 77.06 119.461 77.5767 119.461 78.25C119.461 78.7033 119.488 79.08 119.541 79.38C119.595 79.6733 119.701 79.9133 119.861 80.1C120.028 80.28 120.271 80.37 120.591 80.37C120.911 80.37 121.151 80.28 121.311 80.1C121.478 79.9133 121.588 79.6733 121.641 79.38C121.695 79.08 121.721 78.7033 121.721 78.25ZM124.105 76.71C124.105 76.1567 124.295 75.72 124.675 75.4C125.055 75.0733 125.555 74.91 126.175 74.91C126.795 74.91 127.291 75.0733 127.665 75.4C128.045 75.72 128.235 76.1567 128.235 76.71C128.235 77.2633 128.045 77.7067 127.665 78.04C127.291 78.3667 126.798 78.53 126.185 78.53C125.778 78.53 125.418 78.4567 125.105 78.31C124.791 78.1567 124.545 77.9433 124.365 77.67C124.191 77.3967 124.105 77.0767 124.105 76.71ZM126.915 76.72C126.915 76.4333 126.841 76.2133 126.695 76.06C126.548 75.9067 126.375 75.83 126.175 75.83C125.968 75.83 125.791 75.9067 125.645 76.06C125.498 76.2133 125.425 76.4333 125.425 76.72C125.425 77.0067 125.498 77.2267 125.645 77.38C125.798 77.5267 125.978 77.6 126.185 77.6C126.385 77.6 126.555 77.5267 126.695 77.38C126.841 77.2267 126.915 77.0067 126.915 76.72Z" fill="#1C1B1F"/>
<path d="M3.297 89.121V89.639H1.176V91.284H2.898V91.802H1.176V94H0.539V89.121H3.297ZM7.46834 90.164V94H6.83134V93.433C6.71001 93.629 6.53968 93.783 6.32034 93.895C6.10568 94.0023 5.86768 94.056 5.60634 94.056C5.30768 94.056 5.03934 93.9953 4.80134 93.874C4.56334 93.748 4.37434 93.5613 4.23434 93.314C4.09901 93.0667 4.03134 92.7657 4.03134 92.411V90.164H4.66134V92.327C4.66134 92.705 4.75701 92.9967 4.94834 93.202C5.13968 93.4027 5.40101 93.503 5.73234 93.503C6.07301 93.503 6.34134 93.398 6.53734 93.188C6.73334 92.978 6.83134 92.6723 6.83134 92.271V90.164H7.46834ZM9.18088 88.82V94H8.54388V88.82H9.18088ZM10.9035 88.82V94H10.2665V88.82H10.9035ZM15.4024 94.049C15.0804 94.049 14.7911 93.993 14.5344 93.881C14.2824 93.7643 14.0841 93.6057 13.9394 93.405C13.7947 93.1997 13.7201 92.964 13.7154 92.698H14.3944C14.4177 92.9267 14.5111 93.1203 14.6744 93.279C14.8424 93.433 15.0851 93.51 15.4024 93.51C15.7057 93.51 15.9437 93.4353 16.1164 93.286C16.2937 93.132 16.3824 92.936 16.3824 92.698C16.3824 92.5113 16.3311 92.3597 16.2284 92.243C16.1257 92.1263 15.9974 92.0377 15.8434 91.977C15.6894 91.9163 15.4817 91.851 15.2204 91.781C14.8984 91.697 14.6394 91.613 14.4434 91.529C14.2521 91.445 14.0864 91.3143 13.9464 91.137C13.8111 90.955 13.7434 90.7123 13.7434 90.409C13.7434 90.143 13.8111 89.9073 13.9464 89.702C14.0817 89.4967 14.2707 89.338 14.5134 89.226C14.7607 89.114 15.0431 89.058 15.3604 89.058C15.8177 89.058 16.1911 89.1723 16.4804 89.401C16.7744 89.6297 16.9401 89.933 16.9774 90.311H16.2774C16.2541 90.1243 16.1561 89.961 15.9834 89.821C15.8107 89.6763 15.5821 89.604 15.2974 89.604C15.0314 89.604 14.8144 89.674 14.6464 89.814C14.4784 89.9493 14.3944 90.1407 14.3944 90.388C14.3944 90.5653 14.4434 90.71 14.5414 90.822C14.6441 90.934 14.7677 91.0203 14.9124 91.081C15.0617 91.137 15.2694 91.2023 15.5354 91.277C15.8574 91.3657 16.1164 91.4543 16.3124 91.543C16.5084 91.627 16.6764 91.76 16.8164 91.942C16.9564 92.1193 17.0264 92.362 17.0264 92.67C17.0264 92.908 16.9634 93.132 16.8374 93.342C16.7114 93.552 16.5247 93.7223 16.2774 93.853C16.0301 93.9837 15.7384 94.049 15.4024 94.049ZM18.6008 90.871C18.7268 90.6517 18.9135 90.4697 19.1608 90.325C19.4128 90.1757 19.7045 90.101 20.0358 90.101C20.3765 90.101 20.6845 90.1827 20.9598 90.346C21.2398 90.5093 21.4591 90.7403 21.6178 91.039C21.7765 91.333 21.8558 91.676 21.8558 92.068C21.8558 92.4553 21.7765 92.8007 21.6178 93.104C21.4591 93.4073 21.2398 93.643 20.9598 93.811C20.6845 93.979 20.3765 94.063 20.0358 94.063C19.7091 94.063 19.4198 93.9907 19.1678 93.846C18.9205 93.6967 18.7315 93.5123 18.6008 93.293V95.82H17.9638V90.164H18.6008V90.871ZM21.2048 92.068C21.2048 91.7787 21.1465 91.5267 21.0298 91.312C20.9131 91.0973 20.7545 90.934 20.5538 90.822C20.3578 90.71 20.1408 90.654 19.9028 90.654C19.6695 90.654 19.4525 90.7123 19.2518 90.829C19.0558 90.941 18.8971 91.1067 18.7758 91.326C18.6591 91.5407 18.6008 91.7903 18.6008 92.075C18.6008 92.3643 18.6591 92.6187 18.7758 92.838C18.8971 93.0527 19.0558 93.2183 19.2518 93.335C19.4525 93.447 19.6695 93.503 19.9028 93.503C20.1408 93.503 20.3578 93.447 20.5538 93.335C20.7545 93.2183 20.9131 93.0527 21.0298 92.838C21.1465 92.6187 21.2048 92.362 21.2048 92.068ZM26.1943 91.935C26.1943 92.0563 26.1873 92.1847 26.1733 92.32H23.1073C23.1306 92.698 23.2589 92.9943 23.4923 93.209C23.7303 93.419 24.0173 93.524 24.3533 93.524C24.6286 93.524 24.8573 93.461 25.0393 93.335C25.2259 93.2043 25.3566 93.0317 25.4313 92.817H26.1173C26.0146 93.1857 25.8093 93.4867 25.5013 93.72C25.1933 93.9487 24.8106 94.063 24.3533 94.063C23.9893 94.063 23.6626 93.9813 23.3733 93.818C23.0886 93.6547 22.8646 93.4237 22.7013 93.125C22.5379 92.8217 22.4563 92.4717 22.4563 92.075C22.4563 91.6783 22.5356 91.3307 22.6943 91.032C22.8529 90.7333 23.0746 90.5047 23.3593 90.346C23.6486 90.1827 23.9799 90.101 24.3533 90.101C24.7173 90.101 25.0393 90.1803 25.3193 90.339C25.5993 90.4977 25.8139 90.717 25.9633 90.997C26.1173 91.2723 26.1943 91.585 26.1943 91.935ZM25.5363 91.802C25.5363 91.5593 25.4826 91.3517 25.3753 91.179C25.2679 91.0017 25.1209 90.8687 24.9343 90.78C24.7523 90.6867 24.5493 90.64 24.3253 90.64C24.0033 90.64 23.7279 90.7427 23.4993 90.948C23.2753 91.1533 23.1469 91.438 23.1143 91.802H25.5363ZM26.7971 92.075C26.7971 91.6783 26.8764 91.333 27.0351 91.039C27.1938 90.7403 27.4131 90.5093 27.6931 90.346C27.9778 90.1827 28.3021 90.101 28.6661 90.101C29.1374 90.101 29.5248 90.2153 29.8281 90.444C30.1361 90.6727 30.3391 90.99 30.4371 91.396H29.7511C29.6858 91.1627 29.5574 90.9783 29.3661 90.843C29.1794 90.7077 28.9461 90.64 28.6661 90.64C28.3021 90.64 28.0081 90.766 27.7841 91.018C27.5601 91.2653 27.4481 91.6177 27.4481 92.075C27.4481 92.537 27.5601 92.894 27.7841 93.146C28.0081 93.398 28.3021 93.524 28.6661 93.524C28.9461 93.524 29.1794 93.4587 29.3661 93.328C29.5528 93.1973 29.6811 93.0107 29.7511 92.768H30.4371C30.3344 93.16 30.1291 93.475 29.8211 93.713C29.5131 93.9463 29.1281 94.063 28.6661 94.063C28.3021 94.063 27.9778 93.9813 27.6931 93.818C27.4131 93.6547 27.1938 93.4237 27.0351 93.125C26.8764 92.8263 26.7971 92.4763 26.7971 92.075ZM32.064 90.689V92.95C32.064 93.1367 32.1037 93.2697 32.183 93.349C32.2624 93.4237 32.4 93.461 32.596 93.461H33.065V94H32.491C32.1364 94 31.8704 93.9183 31.693 93.755C31.5157 93.5917 31.427 93.3233 31.427 92.95V90.689H30.93V90.164H31.427V89.198H32.064V90.164H33.065V90.689H32.064ZM34.4739 90.787C34.5859 90.5677 34.7445 90.3973 34.9499 90.276C35.1599 90.1547 35.4142 90.094 35.7129 90.094V90.752H35.5449C34.8309 90.752 34.4739 91.1393 34.4739 91.914V94H33.8369V90.164H34.4739V90.787ZM39.8502 90.164V94H39.2132V93.433C39.0918 93.629 38.9215 93.783 38.7022 93.895C38.4875 94.0023 38.2495 94.056 37.9882 94.056C37.6895 94.056 37.4212 93.9953 37.1832 93.874C36.9452 93.748 36.7562 93.5613 36.6162 93.314C36.4808 93.0667 36.4132 92.7657 36.4132 92.411V90.164H37.0432V92.327C37.0432 92.705 37.1388 92.9967 37.3302 93.202C37.5215 93.4027 37.7828 93.503 38.1142 93.503C38.4548 93.503 38.7232 93.398 38.9192 93.188C39.1152 92.978 39.2132 92.6723 39.2132 92.271V90.164H39.8502ZM45.5387 90.094C45.8374 90.094 46.1034 90.157 46.3367 90.283C46.5701 90.4043 46.7544 90.5887 46.8897 90.836C47.0251 91.0833 47.0927 91.3843 47.0927 91.739V94H46.4627V91.83C46.4627 91.4473 46.3671 91.1557 46.1757 90.955C45.9891 90.7497 45.7347 90.647 45.4127 90.647C45.0814 90.647 44.8177 90.7543 44.6217 90.969C44.4257 91.179 44.3277 91.4847 44.3277 91.886V94H43.6977V91.83C43.6977 91.4473 43.6021 91.1557 43.4107 90.955C43.2241 90.7497 42.9697 90.647 42.6477 90.647C42.3164 90.647 42.0527 90.7543 41.8567 90.969C41.6607 91.179 41.5627 91.4847 41.5627 91.886V94H40.9257V90.164H41.5627V90.717C41.6887 90.5163 41.8567 90.3623 42.0667 90.255C42.2814 90.1477 42.5171 90.094 42.7737 90.094C43.0957 90.094 43.3804 90.1663 43.6277 90.311C43.8751 90.4557 44.0594 90.668 44.1807 90.948C44.2881 90.6773 44.4654 90.4673 44.7127 90.318C44.9601 90.1687 45.2354 90.094 45.5387 90.094ZM53.2658 90.549C53.2658 90.955 53.1258 91.2933 52.8458 91.564C52.5705 91.83 52.1482 91.963 51.5788 91.963H50.6408V94H50.0038V89.121H51.5788C52.1295 89.121 52.5472 89.254 52.8318 89.52C53.1212 89.786 53.2658 90.129 53.2658 90.549ZM51.5788 91.438C51.9335 91.438 52.1948 91.361 52.3628 91.207C52.5308 91.053 52.6148 90.8337 52.6148 90.549C52.6148 89.947 52.2695 89.646 51.5788 89.646H50.6408V91.438H51.5788ZM54.6946 90.787C54.8066 90.5677 54.9652 90.3973 55.1706 90.276C55.3806 90.1547 55.6349 90.094 55.9336 90.094V90.752H55.7656C55.0516 90.752 54.6946 91.1393 54.6946 91.914V94H54.0576V90.164H54.6946V90.787ZM58.3419 94.063C57.9825 94.063 57.6559 93.9813 57.3619 93.818C57.0725 93.6547 56.8439 93.4237 56.6759 93.125C56.5125 92.8217 56.4309 92.4717 56.4309 92.075C56.4309 91.683 56.5149 91.3377 56.6829 91.039C56.8555 90.7357 57.0889 90.5047 57.3829 90.346C57.6769 90.1827 58.0059 90.101 58.3699 90.101C58.7339 90.101 59.0629 90.1827 59.3569 90.346C59.6509 90.5047 59.8819 90.7333 60.0499 91.032C60.2225 91.3307 60.3089 91.6783 60.3089 92.075C60.3089 92.4717 60.2202 92.8217 60.0429 93.125C59.8702 93.4237 59.6345 93.6547 59.3359 93.818C59.0372 93.9813 58.7059 94.063 58.3419 94.063ZM58.3419 93.503C58.5705 93.503 58.7852 93.4493 58.9859 93.342C59.1865 93.2347 59.3475 93.0737 59.4689 92.859C59.5949 92.6443 59.6579 92.383 59.6579 92.075C59.6579 91.767 59.5972 91.5057 59.4759 91.291C59.3545 91.0763 59.1959 90.9177 58.9999 90.815C58.8039 90.7077 58.5915 90.654 58.3629 90.654C58.1295 90.654 57.9149 90.7077 57.7189 90.815C57.5275 90.9177 57.3735 91.0763 57.2569 91.291C57.1402 91.5057 57.0819 91.767 57.0819 92.075C57.0819 92.3877 57.1379 92.6513 57.2499 92.866C57.3665 93.0807 57.5205 93.2417 57.7119 93.349C57.9032 93.4517 58.1132 93.503 58.3419 93.503ZM61.7834 90.871C61.9094 90.6517 62.0961 90.4697 62.3434 90.325C62.5954 90.1757 62.8871 90.101 63.2184 90.101C63.5591 90.101 63.8671 90.1827 64.1424 90.346C64.4224 90.5093 64.6418 90.7403 64.8004 91.039C64.9591 91.333 65.0384 91.676 65.0384 92.068C65.0384 92.4553 64.9591 92.8007 64.8004 93.104C64.6418 93.4073 64.4224 93.643 64.1424 93.811C63.8671 93.979 63.5591 94.063 63.2184 94.063C62.8918 94.063 62.6024 93.9907 62.3504 93.846C62.1031 93.6967 61.9141 93.5123 61.7834 93.293V95.82H61.1464V90.164H61.7834V90.871ZM64.3874 92.068C64.3874 91.7787 64.3291 91.5267 64.2124 91.312C64.0958 91.0973 63.9371 90.934 63.7364 90.822C63.5404 90.71 63.3234 90.654 63.0854 90.654C62.8521 90.654 62.6351 90.7123 62.4344 90.829C62.2384 90.941 62.0798 91.1067 61.9584 91.326C61.8418 91.5407 61.7834 91.7903 61.7834 92.075C61.7834 92.3643 61.8418 92.6187 61.9584 92.838C62.0798 93.0527 62.2384 93.2183 62.4344 93.335C62.6351 93.447 62.8521 93.503 63.0854 93.503C63.3234 93.503 63.5404 93.447 63.7364 93.335C63.9371 93.2183 64.0958 93.0527 64.2124 92.838C64.3291 92.6187 64.3874 92.362 64.3874 92.068ZM69.3769 91.935C69.3769 92.0563 69.3699 92.1847 69.3559 92.32H66.2899C66.3132 92.698 66.4416 92.9943 66.6749 93.209C66.9129 93.419 67.1999 93.524 67.5359 93.524C67.8112 93.524 68.0399 93.461 68.2219 93.335C68.4086 93.2043 68.5392 93.0317 68.6139 92.817H69.2999C69.1972 93.1857 68.9919 93.4867 68.6839 93.72C68.3759 93.9487 67.9932 94.063 67.5359 94.063C67.1719 94.063 66.8452 93.9813 66.5559 93.818C66.2712 93.6547 66.0472 93.4237 65.8839 93.125C65.7206 92.8217 65.6389 92.4717 65.6389 92.075C65.6389 91.6783 65.7182 91.3307 65.8769 91.032C66.0356 90.7333 66.2572 90.5047 66.5419 90.346C66.8312 90.1827 67.1626 90.101 67.5359 90.101C67.8999 90.101 68.2219 90.1803 68.5019 90.339C68.7819 90.4977 68.9966 90.717 69.1459 90.997C69.2999 91.2723 69.3769 91.585 69.3769 91.935ZM68.7189 91.802C68.7189 91.5593 68.6652 91.3517 68.5579 91.179C68.4506 91.0017 68.3036 90.8687 68.1169 90.78C67.9349 90.6867 67.7319 90.64 67.5079 90.64C67.1859 90.64 66.9106 90.7427 66.6819 90.948C66.4579 91.1533 66.3296 91.438 66.2969 91.802H68.7189ZM70.8547 90.787C70.9667 90.5677 71.1254 90.3973 71.3307 90.276C71.5407 90.1547 71.795 90.094 72.0937 90.094V90.752H71.9257C71.2117 90.752 70.8547 91.1393 70.8547 91.914V94H70.2177V90.164H70.8547V90.787ZM73.606 90.689V92.95C73.606 93.1367 73.6457 93.2697 73.725 93.349C73.8044 93.4237 73.942 93.461 74.138 93.461H74.607V94H74.033C73.6784 94 73.4124 93.9183 73.235 93.755C73.0577 93.5917 72.969 93.3233 72.969 92.95V90.689H72.472V90.164H72.969V89.198H73.606V90.164H74.607V90.689H73.606ZM78.6828 90.164L76.3728 95.806H75.7148L76.4708 93.958L74.9238 90.164H75.6308L76.8348 93.272L78.0248 90.164H78.6828ZM86.1384 89.156V94H85.5014V90.388L83.8914 94H83.4434L81.8264 90.381V94H81.1894V89.156H81.8754L83.6674 93.16L85.4594 89.156H86.1384ZM86.9807 92.068C86.9807 91.676 87.06 91.333 87.2187 91.039C87.3774 90.7403 87.5944 90.5093 87.8697 90.346C88.1497 90.1827 88.46 90.101 88.8007 90.101C89.1367 90.101 89.4284 90.1733 89.6757 90.318C89.923 90.4627 90.1074 90.6447 90.2287 90.864V90.164H90.8727V94H90.2287V93.286C90.1027 93.51 89.9137 93.6967 89.6617 93.846C89.4144 93.9907 89.125 94.063 88.7937 94.063C88.453 94.063 88.145 93.979 87.8697 93.811C87.5944 93.643 87.3774 93.4073 87.2187 93.104C87.06 92.8007 86.9807 92.4553 86.9807 92.068ZM90.2287 92.075C90.2287 91.7857 90.1704 91.5337 90.0537 91.319C89.937 91.1043 89.7784 90.941 89.5777 90.829C89.3817 90.7123 89.1647 90.654 88.9267 90.654C88.6887 90.654 88.4717 90.71 88.2757 90.822C88.0797 90.934 87.9234 91.0973 87.8067 91.312C87.69 91.5267 87.6317 91.7787 87.6317 92.068C87.6317 92.362 87.69 92.6187 87.8067 92.838C87.9234 93.0527 88.0797 93.2183 88.2757 93.335C88.4717 93.447 88.6887 93.503 88.9267 93.503C89.1647 93.503 89.3817 93.447 89.5777 93.335C89.7784 93.2183 89.937 93.0527 90.0537 92.838C90.1704 92.6187 90.2287 92.3643 90.2287 92.075ZM93.8182 90.094C94.2848 90.094 94.6628 90.2363 94.9522 90.521C95.2415 90.801 95.3862 91.207 95.3862 91.739V94H94.7562V91.83C94.7562 91.4473 94.6605 91.1557 94.4692 90.955C94.2778 90.7497 94.0165 90.647 93.6852 90.647C93.3492 90.647 93.0808 90.752 92.8802 90.962C92.6842 91.172 92.5862 91.4777 92.5862 91.879V94H91.9492V90.164H92.5862V90.71C92.7122 90.514 92.8825 90.3623 93.0972 90.255C93.3165 90.1477 93.5568 90.094 93.8182 90.094ZM96.1887 92.068C96.1887 91.676 96.268 91.333 96.4267 91.039C96.5854 90.7403 96.8024 90.5093 97.0777 90.346C97.3577 90.1827 97.668 90.101 98.0087 90.101C98.3447 90.101 98.6364 90.1733 98.8837 90.318C99.131 90.4627 99.3154 90.6447 99.4367 90.864V90.164H100.081V94H99.4367V93.286C99.3107 93.51 99.1217 93.6967 98.8697 93.846C98.6224 93.9907 98.333 94.063 98.0017 94.063C97.661 94.063 97.353 93.979 97.0777 93.811C96.8024 93.643 96.5854 93.4073 96.4267 93.104C96.268 92.8007 96.1887 92.4553 96.1887 92.068ZM99.4367 92.075C99.4367 91.7857 99.3784 91.5337 99.2617 91.319C99.145 91.1043 98.9864 90.941 98.7857 90.829C98.5897 90.7123 98.3727 90.654 98.1347 90.654C97.8967 90.654 97.6797 90.71 97.4837 90.822C97.2877 90.934 97.1314 91.0973 97.0147 91.312C96.898 91.5267 96.8397 91.7787 96.8397 92.068C96.8397 92.362 96.898 92.6187 97.0147 92.838C97.1314 93.0527 97.2877 93.2183 97.4837 93.335C97.6797 93.447 97.8967 93.503 98.1347 93.503C98.3727 93.503 98.5897 93.447 98.7857 93.335C98.9864 93.2183 99.145 93.0527 99.2617 92.838C99.3784 92.6187 99.4367 92.3643 99.4367 92.075ZM102.739 90.101C103.07 90.101 103.36 90.1733 103.607 90.318C103.859 90.4627 104.046 90.6447 104.167 90.864V90.164H104.811V94.084C104.811 94.434 104.736 94.7443 104.587 95.015C104.438 95.2903 104.223 95.505 103.943 95.659C103.668 95.813 103.346 95.89 102.977 95.89C102.473 95.89 102.053 95.771 101.717 95.533C101.381 95.295 101.183 94.9707 101.122 94.56H101.752C101.822 94.7933 101.967 94.98 102.186 95.12C102.405 95.2647 102.669 95.337 102.977 95.337C103.327 95.337 103.612 95.2273 103.831 95.008C104.055 94.7887 104.167 94.4807 104.167 94.084V93.279C104.041 93.503 103.854 93.6897 103.607 93.839C103.36 93.9883 103.07 94.063 102.739 94.063C102.398 94.063 102.088 93.979 101.808 93.811C101.533 93.643 101.316 93.4073 101.157 93.104C100.998 92.8007 100.919 92.4553 100.919 92.068C100.919 91.676 100.998 91.333 101.157 91.039C101.316 90.7403 101.533 90.5093 101.808 90.346C102.088 90.1827 102.398 90.101 102.739 90.101ZM104.167 92.075C104.167 91.7857 104.109 91.5337 103.992 91.319C103.875 91.1043 103.717 90.941 103.516 90.829C103.32 90.7123 103.103 90.654 102.865 90.654C102.627 90.654 102.41 90.71 102.214 90.822C102.018 90.934 101.862 91.0973 101.745 91.312C101.628 91.5267 101.57 91.7787 101.57 92.068C101.57 92.362 101.628 92.6187 101.745 92.838C101.862 93.0527 102.018 93.2183 102.214 93.335C102.41 93.447 102.627 93.503 102.865 93.503C103.103 93.503 103.32 93.447 103.516 93.335C103.717 93.2183 103.875 93.0527 103.992 92.838C104.109 92.6187 104.167 92.3643 104.167 92.075ZM109.388 91.935C109.388 92.0563 109.381 92.1847 109.367 92.32H106.301C106.324 92.698 106.452 92.9943 106.686 93.209C106.924 93.419 107.211 93.524 107.547 93.524C107.822 93.524 108.051 93.461 108.233 93.335C108.419 93.2043 108.55 93.0317 108.625 92.817H109.311C109.208 93.1857 109.003 93.4867 108.695 93.72C108.387 93.9487 108.004 94.063 107.547 94.063C107.183 94.063 106.856 93.9813 106.567 93.818C106.282 93.6547 106.058 93.4237 105.895 93.125C105.731 92.8217 105.65 92.4717 105.65 92.075C105.65 91.6783 105.729 91.3307 105.888 91.032C106.046 90.7333 106.268 90.5047 106.553 90.346C106.842 90.1827 107.173 90.101 107.547 90.101C107.911 90.101 108.233 90.1803 108.513 90.339C108.793 90.4977 109.007 90.717 109.157 90.997C109.311 91.2723 109.388 91.585 109.388 91.935ZM108.73 91.802C108.73 91.5593 108.676 91.3517 108.569 91.179C108.461 91.0017 108.314 90.8687 108.128 90.78C107.946 90.6867 107.743 90.64 107.519 90.64C107.197 90.64 106.921 90.7427 106.693 90.948C106.469 91.1533 106.34 91.438 106.308 91.802H108.73ZM114.841 90.094C115.14 90.094 115.406 90.157 115.639 90.283C115.873 90.4043 116.057 90.5887 116.192 90.836C116.328 91.0833 116.395 91.3843 116.395 91.739V94H115.765V91.83C115.765 91.4473 115.67 91.1557 115.478 90.955C115.292 90.7497 115.037 90.647 114.715 90.647C114.384 90.647 114.12 90.7543 113.924 90.969C113.728 91.179 113.63 91.4847 113.63 91.886V94H113V91.83C113 91.4473 112.905 91.1557 112.713 90.955C112.527 90.7497 112.272 90.647 111.95 90.647C111.619 90.647 111.355 90.7543 111.159 90.969C110.963 91.179 110.865 91.4847 110.865 91.886V94H110.228V90.164H110.865V90.717C110.991 90.5163 111.159 90.3623 111.369 90.255C111.584 90.1477 111.82 90.094 112.076 90.094C112.398 90.094 112.683 90.1663 112.93 90.311C113.178 90.4557 113.362 90.668 113.483 90.948C113.591 90.6773 113.768 90.4673 114.015 90.318C114.263 90.1687 114.538 90.094 114.841 90.094ZM120.94 91.935C120.94 92.0563 120.933 92.1847 120.919 92.32H117.853C117.877 92.698 118.005 92.9943 118.238 93.209C118.476 93.419 118.763 93.524 119.099 93.524C119.375 93.524 119.603 93.461 119.785 93.335C119.972 93.2043 120.103 93.0317 120.177 92.817H120.863C120.761 93.1857 120.555 93.4867 120.247 93.72C119.939 93.9487 119.557 94.063 119.099 94.063C118.735 94.063 118.409 93.9813 118.119 93.818C117.835 93.6547 117.611 93.4237 117.447 93.125C117.284 92.8217 117.202 92.4717 117.202 92.075C117.202 91.6783 117.282 91.3307 117.44 91.032C117.599 90.7333 117.821 90.5047 118.105 90.346C118.395 90.1827 118.726 90.101 119.099 90.101C119.463 90.101 119.785 90.1803 120.065 90.339C120.345 90.4977 120.56 90.717 120.709 90.997C120.863 91.2723 120.94 91.585 120.94 91.935ZM120.282 91.802C120.282 91.5593 120.229 91.3517 120.121 91.179C120.014 91.0017 119.867 90.8687 119.68 90.78C119.498 90.6867 119.295 90.64 119.071 90.64C118.749 90.64 118.474 90.7427 118.245 90.948C118.021 91.1533 117.893 91.438 117.86 91.802H120.282ZM123.65 90.094C124.117 90.094 124.495 90.2363 124.784 90.521C125.074 90.801 125.218 91.207 125.218 91.739V94H124.588V91.83C124.588 91.4473 124.493 91.1557 124.301 90.955C124.11 90.7497 123.849 90.647 123.517 90.647C123.181 90.647 122.913 90.752 122.712 90.962C122.516 91.172 122.418 91.4777 122.418 91.879V94H121.781V90.164H122.418V90.71C122.544 90.514 122.715 90.3623 122.929 90.255C123.149 90.1477 123.389 90.094 123.65 90.094ZM127.036 90.689V92.95C127.036 93.1367 127.075 93.2697 127.155 93.349C127.234 93.4237 127.372 93.461 127.568 93.461H128.037V94H127.463C127.108 94 126.842 93.9183 126.665 93.755C126.487 93.5917 126.399 93.3233 126.399 92.95V90.689H125.902V90.164H126.399V89.198H127.036V90.164H128.037V90.689H127.036ZM133.559 92.915H131.431L131.039 94H130.367L132.131 89.149H132.866L134.623 94H133.951L133.559 92.915ZM133.377 92.397L132.495 89.933L131.613 92.397H133.377ZM136.029 90.871C136.155 90.6517 136.341 90.4697 136.589 90.325C136.841 90.1757 137.132 90.101 137.464 90.101C137.804 90.101 138.112 90.1827 138.388 90.346C138.668 90.5093 138.887 90.7403 139.046 91.039C139.204 91.333 139.284 91.676 139.284 92.068C139.284 92.4553 139.204 92.8007 139.046 93.104C138.887 93.4073 138.668 93.643 138.388 93.811C138.112 93.979 137.804 94.063 137.464 94.063C137.137 94.063 136.848 93.9907 136.596 93.846C136.348 93.6967 136.159 93.5123 136.029 93.293V95.82H135.392V90.164H136.029V90.871ZM138.633 92.068C138.633 91.7787 138.574 91.5267 138.458 91.312C138.341 91.0973 138.182 90.934 137.982 90.822C137.786 90.71 137.569 90.654 137.331 90.654C137.097 90.654 136.88 90.7123 136.68 90.829C136.484 90.941 136.325 91.1067 136.204 91.326C136.087 91.5407 136.029 91.7903 136.029 92.075C136.029 92.3643 136.087 92.6187 136.204 92.838C136.325 93.0527 136.484 93.2183 136.68 93.335C136.88 93.447 137.097 93.503 137.331 93.503C137.569 93.503 137.786 93.447 137.982 93.335C138.182 93.2183 138.341 93.0527 138.458 92.838C138.574 92.6187 138.633 92.362 138.633 92.068ZM140.759 90.871C140.885 90.6517 141.072 90.4697 141.319 90.325C141.571 90.1757 141.863 90.101 142.194 90.101C142.535 90.101 142.843 90.1827 143.118 90.346C143.398 90.5093 143.617 90.7403 143.776 91.039C143.935 91.333 144.014 91.676 144.014 92.068C144.014 92.4553 143.935 92.8007 143.776 93.104C143.617 93.4073 143.398 93.643 143.118 93.811C142.843 93.979 142.535 94.063 142.194 94.063C141.867 94.063 141.578 93.9907 141.326 93.846C141.079 93.6967 140.89 93.5123 140.759 93.293V95.82H140.122V90.164H140.759V90.871ZM143.363 92.068C143.363 91.7787 143.305 91.5267 143.188 91.312C143.071 91.0973 142.913 90.934 142.712 90.822C142.516 90.71 142.299 90.654 142.061 90.654C141.828 90.654 141.611 90.7123 141.41 90.829C141.214 90.941 141.055 91.1067 140.934 91.326C140.817 91.5407 140.759 91.7903 140.759 92.075C140.759 92.3643 140.817 92.6187 140.934 92.838C141.055 93.0527 141.214 93.2183 141.41 93.335C141.611 93.447 141.828 93.503 142.061 93.503C142.299 93.503 142.516 93.447 142.712 93.335C142.913 93.2183 143.071 93.0527 143.188 92.838C143.305 92.6187 143.363 92.362 143.363 92.068Z" fill="#1C1B1F"/>
</svg>
