<svg width="22" height="22" viewBox="0 0 22 22" fill="none" xmlns="http://www.w3.org/2000/svg">
<path d="M18.5952 9.68931V8.83942C18.5952 8.26637 18.3676 7.71678 17.9624 7.31157C17.5572 6.90636 17.0076 6.67871 16.4345 6.67871H14.994C14.803 6.67871 14.6198 6.75459 14.4848 6.88966C14.3497 7.02473 14.2738 7.20793 14.2738 7.39895C14.2738 7.58997 14.3497 7.77316 14.4848 7.90823C14.6198 8.04331 14.803 8.11919 14.994 8.11919H16.4345C16.6255 8.11919 16.8087 8.19507 16.9438 8.33014C17.0789 8.46521 17.1548 8.64841 17.1548 8.83942V9.55966H4.91071C4.7197 9.55966 4.5365 9.48378 4.40143 9.34871C4.26636 9.21364 4.19048 9.03044 4.19048 8.83942C4.19048 8.64841 4.26636 8.46521 4.40143 8.33014C4.5365 8.19507 4.7197 8.11919 4.91071 8.11919H6.35119C6.54221 8.11919 6.7254 8.04331 6.86048 7.90823C6.99555 7.77316 7.07143 7.58997 7.07143 7.39895C7.07143 7.20793 6.99555 7.02473 6.86048 6.88966C6.7254 6.75459 6.54221 6.67871 6.35119 6.67871H4.91071C4.33766 6.67871 3.78807 6.90636 3.38286 7.31157C2.97765 7.71678 2.75 8.26637 2.75 8.83942V18.9228C2.75 19.4958 2.97765 20.0454 3.38286 20.4506C3.78807 20.8558 4.33766 21.0835 4.91071 21.0835H17.875C18.4481 21.0835 18.9976 20.8558 19.4029 20.4506C19.8081 20.0454 20.0357 19.4958 20.0357 18.9228V11.7204C20.0345 11.2746 19.8954 10.8401 19.6375 10.4765C19.3796 10.1129 19.0155 9.8379 18.5952 9.68931ZM17.875 19.643H4.91071C4.7197 19.643 4.5365 19.5671 4.40143 19.432C4.26636 19.297 4.19048 19.1138 4.19048 18.9228V10.8705C4.42144 10.9543 4.66501 10.9982 4.91071 11.0001H17.875C18.066 11.0001 18.2492 11.076 18.3843 11.2111C18.5194 11.3462 18.5952 11.5294 18.5952 11.7204V13.1609H16.4345C15.8615 13.1609 15.3119 13.3885 14.9067 13.7937C14.5015 14.1989 14.2738 14.7485 14.2738 15.3216C14.2738 15.8946 14.5015 16.4442 14.9067 16.8494C15.3119 17.2546 15.8615 17.4823 16.4345 17.4823H18.5952V18.9228C18.5952 19.1138 18.5194 19.297 18.3843 19.432C18.2492 19.5671 18.066 19.643 17.875 19.643ZM18.5952 14.6013V16.0418H16.4345C16.2435 16.0418 16.0603 15.9659 15.9252 15.8309C15.7902 15.6958 15.7143 15.5126 15.7143 15.3216C15.7143 15.1305 15.7902 14.9474 15.9252 14.8123C16.0603 14.6772 16.2435 14.6013 16.4345 14.6013H18.5952Z" fill="#0085FF"/>
<path d="M7.78809 3.80113C7.78809 3.60933 7.86428 3.42538 7.9999 3.28976L10.1606 1.12905C10.2276 1.06154 10.3072 1.00796 10.395 0.971393C10.4828 0.934827 10.5769 0.916001 10.672 0.916001C10.7671 0.916001 10.8612 0.934827 10.949 0.971393C11.0367 1.00796 11.1164 1.06154 11.1834 1.12905L13.3441 3.28976C13.4797 3.42538 13.5559 3.60933 13.5559 3.80113C13.5559 3.99293 13.4797 4.17688 13.3441 4.3125C13.2084 4.44812 13.0245 4.52432 12.8327 4.52432C12.6409 4.52432 12.457 4.44812 12.3213 4.3125L11.3922 3.37619V7.40232C11.3922 7.59334 11.3163 7.77653 11.1813 7.91161C11.0462 8.04668 10.863 8.12256 10.672 8.12256C10.481 8.12256 10.2978 8.04668 10.1627 7.91161C10.0276 7.77653 9.95175 7.59334 9.95175 7.40232V3.37619L9.02264 4.3125C8.88702 4.44812 8.70307 4.52432 8.51127 4.52432C8.4163 4.52432 8.32226 4.50561 8.23452 4.46927C8.14678 4.43292 8.06706 4.37965 7.9999 4.3125C7.93275 4.24535 7.87948 4.16562 7.84313 4.07788C7.80679 3.99014 7.78809 3.8961 7.78809 3.80113Z" fill="#0085FF"/>
</svg>
