<svg width="19" height="22" viewBox="0 0 19 22" fill="none" xmlns="http://www.w3.org/2000/svg">
<path d="M16.5952 9.68906V8.83918C16.5952 8.26612 16.3676 7.71654 15.9624 7.31133C15.5572 6.90611 15.0076 6.67847 14.4345 6.67847H12.994C12.803 6.67847 12.6198 6.75435 12.4848 6.88942C12.3497 7.02449 12.2738 7.20769 12.2738 7.3987C12.2738 7.58972 12.3497 7.77292 12.4848 7.90799C12.6198 8.04306 12.803 8.11894 12.994 8.11894H14.4345C14.6255 8.11894 14.8087 8.19483 14.9438 8.3299C15.0789 8.46497 15.1548 8.64816 15.1548 8.83918V9.55942H2.91071C2.7197 9.55942 2.5365 9.48354 2.40143 9.34847C2.26636 9.2134 2.19048 9.0302 2.19048 8.83918C2.19048 8.64816 2.26636 8.46497 2.40143 8.3299C2.5365 8.19483 2.7197 8.11894 2.91071 8.11894H4.35119C4.54221 8.11894 4.7254 8.04306 4.86048 7.90799C4.99555 7.77292 5.07143 7.58972 5.07143 7.3987C5.07143 7.20769 4.99555 7.02449 4.86048 6.88942C4.7254 6.75435 4.54221 6.67847 4.35119 6.67847H2.91071C2.33766 6.67847 1.78807 6.90611 1.38286 7.31133C0.977646 7.71654 0.75 8.26612 0.75 8.83918V18.9225C0.75 19.4956 0.977646 20.0452 1.38286 20.4504C1.78807 20.8556 2.33766 21.0832 2.91071 21.0832H15.875C16.4481 21.0832 16.9976 20.8556 17.4029 20.4504C17.8081 20.0452 18.0357 19.4956 18.0357 18.9225V11.7201C18.0345 11.2743 17.8954 10.8399 17.6375 10.4762C17.3796 10.1126 17.0155 9.83766 16.5952 9.68906ZM15.875 19.6428H2.91071C2.7197 19.6428 2.5365 19.5669 2.40143 19.4318C2.26636 19.2967 2.19048 19.1135 2.19048 18.9225V10.8703C2.42144 10.9541 2.66501 10.9979 2.91071 10.9999H15.875C16.066 10.9999 16.2492 11.0758 16.3843 11.2108C16.5194 11.3459 16.5952 11.5291 16.5952 11.7201V13.1606H14.4345C13.8615 13.1606 13.3119 13.3883 12.9067 13.7935C12.5015 14.1987 12.2738 14.7483 12.2738 15.3213C12.2738 15.8944 12.5015 16.444 12.9067 16.8492C13.3119 17.2544 13.8615 17.482 14.4345 17.482H16.5952V18.9225C16.5952 19.1135 16.5194 19.2967 16.3843 19.4318C16.2492 19.5669 16.066 19.6428 15.875 19.6428ZM16.5952 14.6011V16.0416H14.4345C14.2435 16.0416 14.0603 15.9657 13.9252 15.8306C13.7902 15.6955 13.7143 15.5123 13.7143 15.3213C13.7143 15.1303 13.7902 14.9471 13.9252 14.812C14.0603 14.677 14.2435 14.6011 14.4345 14.6011H16.5952Z" fill="#0085FF"/>
<path d="M5.78809 5.23769C5.78809 5.42949 5.86428 5.61343 5.9999 5.74906L8.16062 7.90977C8.22757 7.97728 8.30723 8.03086 8.395 8.06743C8.48277 8.10399 8.57691 8.12282 8.67199 8.12282C8.76707 8.12282 8.8612 8.10399 8.94897 8.06743C9.03674 8.03086 9.1164 7.97728 9.18335 7.90977L11.3441 5.74906C11.4797 5.61343 11.5559 5.42949 11.5559 5.23769C11.5559 5.04589 11.4797 4.86194 11.3441 4.72632C11.2084 4.5907 11.0245 4.5145 10.8327 4.5145C10.6409 4.5145 10.457 4.5907 10.3213 4.72632L9.39222 5.66263V1.6365C9.39222 1.44548 9.31634 1.26228 9.18127 1.12721C9.0462 0.992142 8.863 0.91626 8.67199 0.91626C8.48097 0.91626 8.29777 0.992142 8.1627 1.12721C8.02763 1.26228 7.95175 1.44548 7.95175 1.6365V5.66263L7.02264 4.72632C6.88702 4.5907 6.70307 4.5145 6.51127 4.5145C6.4163 4.5145 6.32226 4.53321 6.23452 4.56955C6.14678 4.6059 6.06706 4.65917 5.9999 4.72632C5.93275 4.79347 5.87948 4.8732 5.84313 4.96094C5.80679 5.04868 5.78809 5.14272 5.78809 5.23769Z" fill="#0085FF"/>
</svg>
